<mxfile host="app.diagrams.net" agent="Mozilla/5.0 (Windows NT 10.0; Win64; x64) AppleWebKit/537.36 (KHTML, like Gecko) Chrome/131.0.0.0 Safari/537.36 Edg/131.0.0.0" version="25.0.3">
  <diagram id="C5RBs43oDa-KdzZeNtuy" name="Page-1">
    <mxGraphModel dx="1042" dy="565" grid="1" gridSize="10" guides="1" tooltips="1" connect="1" arrows="1" fold="1" page="1" pageScale="1" pageWidth="827" pageHeight="1169" math="0" shadow="0">
      <root>
        <mxCell id="WIyWlLk6GJQsqaUBKTNV-0" />
        <mxCell id="WIyWlLk6GJQsqaUBKTNV-1" parent="WIyWlLk6GJQsqaUBKTNV-0" />
        <mxCell id="z5kdMEsWthjVmIKO_eBU-2" style="edgeStyle=orthogonalEdgeStyle;rounded=0;orthogonalLoop=1;jettySize=auto;html=1;entryX=0.5;entryY=0;entryDx=0;entryDy=0;" edge="1" parent="WIyWlLk6GJQsqaUBKTNV-1" source="z5kdMEsWthjVmIKO_eBU-0" target="z5kdMEsWthjVmIKO_eBU-1">
          <mxGeometry relative="1" as="geometry" />
        </mxCell>
        <mxCell id="z5kdMEsWthjVmIKO_eBU-0" value="START" style="ellipse;whiteSpace=wrap;html=1;" vertex="1" parent="WIyWlLk6GJQsqaUBKTNV-1">
          <mxGeometry x="350" y="80" width="120" height="80" as="geometry" />
        </mxCell>
        <mxCell id="z5kdMEsWthjVmIKO_eBU-4" value="" style="edgeStyle=orthogonalEdgeStyle;rounded=0;orthogonalLoop=1;jettySize=auto;html=1;" edge="1" parent="WIyWlLk6GJQsqaUBKTNV-1" source="z5kdMEsWthjVmIKO_eBU-1">
          <mxGeometry relative="1" as="geometry">
            <mxPoint x="410" y="360" as="targetPoint" />
          </mxGeometry>
        </mxCell>
        <mxCell id="z5kdMEsWthjVmIKO_eBU-1" value="Nhập a với b" style="shape=parallelogram;perimeter=parallelogramPerimeter;whiteSpace=wrap;html=1;fixedSize=1;" vertex="1" parent="WIyWlLk6GJQsqaUBKTNV-1">
          <mxGeometry x="350" y="220" width="120" height="60" as="geometry" />
        </mxCell>
        <mxCell id="z5kdMEsWthjVmIKO_eBU-18" style="edgeStyle=orthogonalEdgeStyle;rounded=0;orthogonalLoop=1;jettySize=auto;html=1;entryX=0.5;entryY=0;entryDx=0;entryDy=0;" edge="1" parent="WIyWlLk6GJQsqaUBKTNV-1" source="z5kdMEsWthjVmIKO_eBU-16" target="z5kdMEsWthjVmIKO_eBU-17">
          <mxGeometry relative="1" as="geometry" />
        </mxCell>
        <mxCell id="z5kdMEsWthjVmIKO_eBU-16" value="while" style="ellipse;whiteSpace=wrap;html=1;" vertex="1" parent="WIyWlLk6GJQsqaUBKTNV-1">
          <mxGeometry x="350" y="360" width="120" height="80" as="geometry" />
        </mxCell>
        <mxCell id="z5kdMEsWthjVmIKO_eBU-20" value="FALSE" style="edgeStyle=orthogonalEdgeStyle;rounded=0;orthogonalLoop=1;jettySize=auto;html=1;entryX=0;entryY=0.5;entryDx=0;entryDy=0;" edge="1" parent="WIyWlLk6GJQsqaUBKTNV-1" source="z5kdMEsWthjVmIKO_eBU-17" target="z5kdMEsWthjVmIKO_eBU-19">
          <mxGeometry relative="1" as="geometry" />
        </mxCell>
        <mxCell id="z5kdMEsWthjVmIKO_eBU-22" value="TRUE" style="edgeStyle=orthogonalEdgeStyle;rounded=0;orthogonalLoop=1;jettySize=auto;html=1;" edge="1" parent="WIyWlLk6GJQsqaUBKTNV-1" source="z5kdMEsWthjVmIKO_eBU-17" target="z5kdMEsWthjVmIKO_eBU-21">
          <mxGeometry relative="1" as="geometry" />
        </mxCell>
        <mxCell id="z5kdMEsWthjVmIKO_eBU-17" value="a*i %b != 0" style="rhombus;whiteSpace=wrap;html=1;" vertex="1" parent="WIyWlLk6GJQsqaUBKTNV-1">
          <mxGeometry x="370" y="505" width="80" height="80" as="geometry" />
        </mxCell>
        <mxCell id="z5kdMEsWthjVmIKO_eBU-26" style="edgeStyle=orthogonalEdgeStyle;rounded=0;orthogonalLoop=1;jettySize=auto;html=1;" edge="1" parent="WIyWlLk6GJQsqaUBKTNV-1" source="z5kdMEsWthjVmIKO_eBU-19" target="z5kdMEsWthjVmIKO_eBU-24">
          <mxGeometry relative="1" as="geometry" />
        </mxCell>
        <mxCell id="z5kdMEsWthjVmIKO_eBU-19" value="end while" style="ellipse;whiteSpace=wrap;html=1;" vertex="1" parent="WIyWlLk6GJQsqaUBKTNV-1">
          <mxGeometry x="530" y="505" width="120" height="80" as="geometry" />
        </mxCell>
        <mxCell id="z5kdMEsWthjVmIKO_eBU-23" style="edgeStyle=orthogonalEdgeStyle;rounded=0;orthogonalLoop=1;jettySize=auto;html=1;entryX=0;entryY=0.5;entryDx=0;entryDy=0;" edge="1" parent="WIyWlLk6GJQsqaUBKTNV-1" source="z5kdMEsWthjVmIKO_eBU-21" target="z5kdMEsWthjVmIKO_eBU-17">
          <mxGeometry relative="1" as="geometry">
            <Array as="points">
              <mxPoint x="330" y="705" />
              <mxPoint x="330" y="545" />
            </Array>
          </mxGeometry>
        </mxCell>
        <mxCell id="z5kdMEsWthjVmIKO_eBU-21" value="i++" style="whiteSpace=wrap;html=1;" vertex="1" parent="WIyWlLk6GJQsqaUBKTNV-1">
          <mxGeometry x="350" y="675" width="120" height="60" as="geometry" />
        </mxCell>
        <mxCell id="z5kdMEsWthjVmIKO_eBU-28" style="edgeStyle=orthogonalEdgeStyle;rounded=0;orthogonalLoop=1;jettySize=auto;html=1;entryX=0.5;entryY=0;entryDx=0;entryDy=0;" edge="1" parent="WIyWlLk6GJQsqaUBKTNV-1" source="z5kdMEsWthjVmIKO_eBU-24" target="z5kdMEsWthjVmIKO_eBU-27">
          <mxGeometry relative="1" as="geometry" />
        </mxCell>
        <mxCell id="z5kdMEsWthjVmIKO_eBU-24" value="a*i" style="shape=parallelogram;perimeter=parallelogramPerimeter;whiteSpace=wrap;html=1;fixedSize=1;" vertex="1" parent="WIyWlLk6GJQsqaUBKTNV-1">
          <mxGeometry x="530" y="670" width="120" height="60" as="geometry" />
        </mxCell>
        <mxCell id="z5kdMEsWthjVmIKO_eBU-27" value="END" style="ellipse;whiteSpace=wrap;html=1;" vertex="1" parent="WIyWlLk6GJQsqaUBKTNV-1">
          <mxGeometry x="530" y="830" width="120" height="80" as="geometry" />
        </mxCell>
      </root>
    </mxGraphModel>
  </diagram>
</mxfile>
